<svg xmlns="http://www.w3.org/2000/svg" version="1.1" xmlns:xlink="http://www.w3.org/1999/xlink" xmlns:svgjs="http://svgjs.dev/svgjs" width="100%" height="100%" viewBox="0 0 1000 600"><rect width="1000" height="600" x="0" y="0" fill="#2b3252"/><g><rect width="333.3333333333333" height="333.3333333333333" rx="13.333333333333334" ry="13.333333333333334" y="231.67540565383928" fill="#fad744" transform="matrix(0.5967920098253101,0,0,0.5967920098253103,0,62.27261802382097)" x="209.45315551757812"/><path d="M364.6818485817472 449.3996560870516L370.4408249355732 473.3420670395319L417.4191413033575 473.3420670395319L374.65340949068667 323.3420625644159L321.8094690588203 323.3420625644159L324.8489288011174 333.7402143143795L285.81586684740785 473.3420670395319L323.4625085677889 473.3420670395319L328.3149793844386 449.3996560870516L364.6818485817472 449.3996560870516ZM333.5940410421124 423.32429092945057L344.8453744741243 367.3875669001592L358.38963367664104 423.32429092945057L333.5940410421124 423.32429092945057ZM422.75152681615936 323.3420625644159L422.75152681615936 473.3420670395319L466.42376416600644 473.3420670395319L466.42376416600644 323.3420625644159L422.75152681615936 323.3420625644159Z " fill="#2b3252" transform="matrix(0.5967920098253101,0,0,0.5967920098253103,0,62.27261802382097)"/><path d="M626.1198218983527 335.7825609175696L626.1198218983527 441.5079333260417L656.8639934696753 441.5079333260417L656.8639934696753 335.7825609175696L626.1198218983527 335.7825609175696ZM670.1313437932411 441.5079333260417L699.2593792061689 441.5079333260417L699.2593792061689 388.92713133547915Q699.4473020152845 388.7392085263635 699.9359013189853 388.32577834630905Q700.4620851845091 387.91234816625456 700.687592555448 387.76200991896206Q700.9130999263867 387.5740871098464 701.4016992300874 387.1606569297919Q701.8902985337882 386.7472267497375 702.15339046655 386.5593039406218Q702.416482399312 386.40896569332926 702.8674971411897 386.07070463692105Q703.3185118830672 385.77002814233606 703.6943575012986 385.6196898950435Q704.0702031195299 385.50693620957406 704.5588024232306 385.2814288386353Q705.0474017269313 385.0559214676965 705.4608319069857 384.9431677822271Q705.8742620870403 384.86799865858086 706.3628613907409 384.7552449731114Q706.8514606944417 384.6800758494652 707.3776445599656 384.6800758494652L707.3776445599656 384.6800758494652Q714.894556924592 384.6800758494652 714.593880430007 393.17418682149315L714.593880430007 393.17418682149315L714.593880430007 441.5079333260417L744.3608533939281 441.5079333260417L744.3608533939281 395.7675215872893Q744.3608533939281 395.12858403629605 744.4736070793975 394.07621630524835L744.4736070793975 394.07621630524835Q744.4736070793975 392.9862640123775 744.4736070793975 392.4224955850305L744.4736070793975 392.4224955850305Q744.4736070793975 376.5618104956685 739.3621066714514 369.7965893675047Q734.2881908253286 363.0313682393408 721.9228699855179 363.0313682393408L721.9228699855179 363.0313682393408Q718.3899211741434 363.0313682393408 714.7442186772996 364.4219970267967Q711.0985161804556 365.81262581425256 708.4675968528363 367.7670230290555Q705.8742620870403 369.72142024385835 703.7319420631217 371.6758174586613Q701.6272066010263 373.6677992352873 700.5372543081554 375.1335971463895L700.5372543081554 375.1335971463895L699.4473020152845 376.48664137202223L699.4473020152845 364.83542720685114L684.1128007914465 364.83542720685114L664.71916689071 370.17243498573595L664.71916689071 379.79408281245793L670.1313437932411 383.13910881471674L670.1313437932411 441.5079333260417ZM746.615927103316 364.83542720685114L773.1506277504476 441.5079333260417L801.564556488736 441.5079333260417L824.5663083244932 364.83542720685114L800.2115122631031 364.83542720685114L793.5214602585855 392.5352492704999L788.9361437161634 416.43903059001224L784.8018419156189 392.5352492704999L779.0138193948563 364.83542720685114L746.615927103316 364.83542720685114ZM870.1939663777763 394.8654921035341L870.1939663777763 394.8654921035341L856.513185874156 394.8654921035341L856.513185874156 387.31099517708446Q856.513185874156 384.04113829847194 856.7386932450946 381.9364028363765Q856.9642006160335 379.79408281245793 857.7534764143194 377.76451647400876Q858.5803367744282 375.7349501355596 860.2716420564692 374.7953360899813Q862.0005319003332 373.85572204440297 864.7066203515989 373.85572204440297L864.7066203515989 373.85572204440297Q867.8637235447419 373.85572204440297 869.0288449612591 378.6289613959408Q870.1939663777763 383.4022007474787 870.1939663777763 394.8654921035341ZM862.9777305077347 443.38716141719834L862.9777305077347 443.38716141719834Q868.3899074102659 443.38716141719834 874.3658527401439 442.146870877035Q880.3042135081988 440.86899577504846 886.7687581417778 437.2232932782046Q893.1957182135333 433.57759078136075 896.5407442157922 428.16541387882967L896.5407442157922 428.16541387882967L891.2413209987304 419.0323653558084Q888.6855707947574 421.4001927506658 884.9646991742674 423.09149803270674Q881.2062429919541 424.82038787657086 877.5605404951101 425.64724823667973Q873.9148379982663 426.43652403496554 870.757734805123 426.43652403496554L870.757734805123 426.43652403496554Q867.4878779265106 426.43652403496554 865.2328042171226 425.91034016944167Q862.9777305077347 425.3465717420947 860.8354104838162 423.7304355837Q858.6555058980745 422.11429942530526 857.5279690433805 418.69410429940024Q856.4004321886865 415.27390917349516 856.4004321886865 409.9369013946103L856.4004321886865 409.9369013946103L856.4004321886865 408.2080115507462L897.6306965086629 408.2080115507462L897.6306965086629 398.2105181057929Q897.6306965086629 379.71891368881165 889.963445896744 371.3751409640762Q882.2961952848249 363.0313682393408 864.5186975424832 363.0313682393408L864.5186975424832 363.0313682393408Q846.0270931255019 363.0313682393408 835.7665077477867 373.40470730252537Q825.4683378082483 383.77804636571 825.4683378082483 403.9985406265554L825.4683378082483 403.9985406265554Q825.4683378082483 412.45506703676017 827.4603195848744 419.3706264122166Q829.4523013615004 426.2486012258499 833.7369414093374 431.77353181385035Q838.0215814571746 437.2608778400278 845.4633246981549 440.3428119095246Q852.9050679391352 443.38716141719834 862.9777305077347 443.38716141719834ZM931.080956531251 443.38716141719834L931.080956531251 443.38716141719834Q965.9970144649413 443.38716141719834 965.9970144649413 415.6121702299033L965.9970144649413 415.6121702299033Q965.9970144649413 406.06569152682766 961.2237751134033 399.63873145507193Q956.4505357618656 393.2493559451394 945.8892738895653 389.71640713376496L945.8892738895653 389.71640713376496Q944.0100457984087 389.1902232682411 941.3791264707894 388.5137011554247Q938.7482071431701 387.83717904260834 937.3199937938911 387.42374886255385Q935.891780444612 387.0103186824994 934.3883979716867 386.333796569683Q932.8850154987614 385.6572744568666 932.2836625095914 384.7176604112883Q931.644724958598 383.77804636571 931.644724958598 382.3498330164309L931.644724958598 382.3498330164309Q931.644724958598 377.27591717030805 940.2140050542722 377.27591717030805L940.2140050542722 377.27591717030805Q950.662513241103 377.27591717030805 956.6384585709812 383.13910881471674L956.6384585709812 383.13910881471674L960.5848375624101 370.2476041093822Q960.5848375624101 370.2476041093822 958.9687014040154 368.7066370746338L958.9687014040154 368.7066370746338Q951.6772964103278 363.0313682393408 936.2300415010201 363.0313682393408L936.2300415010201 363.0313682393408Q927.2097466634685 363.0313682393408 919.9183416697807 365.66228756696006Q912.5893521142699 368.2556223327562 907.9288664482013 374.08122941534174Q903.2307962203098 379.9068364979273 903.2307962203098 388.025101851724L903.2307962203098 388.025101851724Q903.2307962203098 407.869750494338 924.2405662794409 414.1839568806243L924.2405662794409 414.1839568806243Q932.3588316332376 416.6269533991279 935.9669495682584 418.4685969284614Q939.575067503279 420.3102404577949 939.575067503279 422.64048329082914L939.575067503279 422.64048329082914Q939.575067503279 425.08347980933274 937.54550116483 426.43652403496554Q935.5159348263807 427.78956826059834 930.1037579238497 427.78956826059834L930.1037579238497 427.78956826059834Q922.6244301210462 427.78956826059834 915.4457788128278 425.64724823667973Q908.2671275046094 423.46734365093806 905.2227779969359 420.4981632669106L905.2227779969359 420.4981632669106L902.8549506020785 435.0058041306398Q905.2979471205821 437.7118925819053 913.9423963399025 440.5683192804634Q922.6244301210462 443.38716141719834 931.080956531251 443.38716141719834ZM994.7867888214608 443.38716141719834L994.7867888214608 443.38716141719834Q1000.9130723986315 443.38716141719834 1005.9118191211081 442.0341171915656Q1010.9105658435848 440.6810729659328 1013.0904704293265 439.4031978639463Q1015.2703750150682 438.08773820013664 1016.6234192407011 436.7346939745039L1016.6234192407011 436.7346939745039L1016.6234192407011 424.44454225833954Q1015.6086360714763 425.2714026184484 1014.067669036728 425.722417360326Q1012.5642865638025 426.1734321022036 1010.6474739108229 426.1734321022036L1010.6474739108229 426.1734321022036Q1006.3252493011627 426.1734321022036 1004.2580984008904 423.8431892691694Q1002.1909475006181 421.47536187431206 1002.1909475006181 414.25912600427057L1002.1909475006181 414.25912600427057L1002.1909475006181 380.69611229621313L1017.2247722298711 380.69611229621313L1017.2247722298711 364.83542720685114L1002.45403943338 364.83542720685114L1002.45403943338 343.82565714772L986.555769782195 343.82565714772L977.3851366973505 364.83542720685114L966.7111211395808 368.18045320910994L966.7111211395808 380.69611229621313L972.9501584022208 380.69611229621313L972.9501584022208 411.36511474388936Q972.9501584022208 428.8043514298229 977.7609823155818 436.09575642351064Q982.6093907907658 443.38716141719834 994.7867888214608 443.38716141719834ZM1025.0799456509058 383.13910881471674L1025.0799456509058 441.5079333260417L1054.1328119401874 441.5079333260417L1054.1328119401874 364.83542720685114L1039.0614026491112 364.83542720685114L1019.6677687483747 370.17243498573595L1019.6677687483747 379.79408281245793L1025.0799456509058 383.13910881471674ZM1023.3886403688649 341.6457525619783L1038.159373165356 356.52923904393884L1041.5795682912612 356.52923904393884L1057.0268232005687 341.6457525619783L1057.0268232005687 338.4886493688352L1041.5795682912612 323.717916572344L1038.159373165356 323.717916572344L1023.3886403688649 338.4886493688352L1023.3886403688649 341.6457525619783ZM1066.6860555891135 441.5079333260417L1095.8140910020416 441.5079333260417L1095.8140910020416 388.92713133547915Q1096.0020138111572 388.7392085263635 1096.4906131148578 388.32577834630905Q1096.9792124185587 387.91234816625456 1097.2047197894972 387.76200991896206Q1097.430227160436 387.5740871098464 1097.918826464137 387.1606569297919Q1098.4074257678376 386.7472267497375 1098.7081022624225 386.5593039406218Q1098.9711941951846 386.40896569332926 1099.4222089370624 386.07070463692105Q1099.8732236789397 385.77002814233606 1100.2114847353478 385.6196898950435Q1100.587330353579 385.50693620957406 1101.07592965728 385.2814288386353Q1101.5645289609806 385.0559214676965 1101.9779591410352 384.9431677822271Q1102.3913893210897 384.86799865858086 1102.8799886247903 384.7552449731114Q1103.3685879284913 384.6800758494652 1103.9323563558382 384.6800758494652L1103.9323563558382 384.6800758494652Q1111.4116841586415 384.6800758494652 1111.1485922258794 393.17418682149315L1111.1485922258794 393.17418682149315L1111.1485922258794 441.5079333260417L1140.9155651898004 441.5079333260417L1140.9155651898004 395.7675215872893Q1140.9155651898004 395.12858403629605 1140.9907343134469 394.07621630524835L1140.9907343134469 394.07621630524835Q1140.9907343134469 392.9862640123775 1140.9907343134469 392.4224955850305L1140.9907343134469 392.4224955850305Q1140.9907343134469 376.5618104956685 1135.916818467324 369.7965893675047Q1130.805318059378 363.0313682393408 1118.4399972195674 363.0313682393408L1118.4399972195674 363.0313682393408Q1114.9446329700158 363.0313682393408 1111.261345911349 364.4219970267967Q1107.615643414505 365.81262581425256 1105.022308648709 367.7670230290555Q1102.3913893210897 369.72142024385835 1100.2866538589942 371.6758174586613Q1098.1443338350755 373.6677992352873 1097.0543815422047 375.1335971463895L1097.0543815422047 375.1335971463895L1096.0020138111572 376.48664137202223L1096.0020138111572 364.83542720685114L1080.667512587319 364.83542720685114L1061.2738786865825 370.17243498573595L1061.2738786865825 379.79408281245793L1066.6860555891135 383.13910881471674L1066.6860555891135 441.5079333260417ZM1186.9942379849613 473.3420571902351L1186.9942379849613 473.3420571902351Q1224.541215246271 473.3420571902351 1224.541215246271 438.1629073237829L1224.541215246271 438.1629073237829L1224.541215246271 377.91485472130125L1229.9533921488019 374.1188139771649L1229.9533921488019 365.66228756696006L1212.9651702047458 364.83542720685114L1199.171636015656 364.83542720685114L1197.630668980908 369.08248269286514Q1189.4372345034649 364.1213205322116 1178.2370350801712 364.1213205322116L1178.2370350801712 364.1213205322116Q1170.8704609628376 364.1213205322116 1165.0072693184288 367.24083916353163Q1159.14407767402 370.3227732330285 1155.4607906153528 375.81011925920586Q1151.8150881185093 381.2598807235601 1149.9358600273526 388.43853203177844Q1148.0190473743728 395.57959877817365 1148.0190473743728 404.0737097502016L1148.0190473743728 404.0737097502016Q1148.0190473743728 422.18946854895154 1154.9721913116523 432.4124693648436Q1161.9253352489318 442.5978856189126 1176.8088217308923 442.5978856189126L1176.8088217308923 442.5978856189126Q1187.82109834507 442.5978856189126 1195.4883489569893 434.6675430742316L1195.4883489569893 434.6675430742316L1195.4883489569893 442.33479368615065Q1195.3755952715196 444.28919090095354 1195.1500879005812 445.9429116211714Q1194.9245805296423 447.5590477795661 1194.0225510458872 449.58861411801524Q1193.1205215621317 451.6181804564644 1191.6923082128528 453.0088092439203Q1190.264094863574 454.39943803137623 1187.5955909741315 455.33905207695454Q1184.927087084689 456.31625068435596 1181.3189691496682 456.31625068435596Q1177.7108512146474 456.31625068435596 1172.6745199303477 454.8504527732538Q1167.6006040842249 453.4222394239748 1165.345530374837 451.69334958011063L1165.345530374837 451.69334958011063L1159.6702615395438 464.0586704199213Q1162.301180867163 466.9526816803025 1171.1335528955992 470.14736943526884Q1179.9659249240353 473.3420571902351 1186.9942379849613 473.3420571902351ZM1189.8882492453426 426.1734321022036L1189.8882492453426 426.1734321022036Q1183.6492119827026 426.1734321022036 1180.9431235314369 419.0323653558084L1180.9431235314369 419.0323653558084Q1179.4397410585116 414.89806355526383 1179.4397410585116 409.1100410345014L1179.4397410585116 409.1100410345014L1179.4397410585116 395.12858403629605Q1179.5149101821576 376.7497333047842 1191.5043854037372 376.6369796193148L1191.5043854037372 376.6369796193148Q1193.3084443712473 376.6369796193148 1195.4883489569893 377.0879943611924L1195.4883489569893 377.0879943611924L1195.4883489569893 424.63246506745514Q1192.594337696608 426.1734321022036 1189.8882492453426 426.1734321022036ZM1231.3816054980807 428.35333668794533L1246.1899228563952 443.23682316990585L1249.6101179823004 443.23682316990585L1265.0197883297847 428.35333668794533L1265.0197883297847 425.1962334948022L1249.6101179823004 410.3879161364879L1246.1899228563952 410.3879161364879L1231.3816054980807 425.1962334948022L1231.3816054980807 428.35333668794533ZM1272.8749617508192 339.5034325380597L1272.8749617508192 441.5079333260417L1302.266089096509 441.5079333260417L1302.266089096509 323.34207095411267L1296.4028974521007 323.34207095411267L1267.4627848482883 327.8522183728886L1267.4627848482883 336.2335756594472L1272.8749617508192 339.5034325380597ZM1352.2535563212755 434.47962026511595L1353.1555858050306 433.4648370958913L1356.049597065412 441.5079333260417L1380.74265418321 441.5079333260417L1378.22448854106 434.47962026511595L1378.22448854106 397.7595033639153Q1378.22448854106 387.83717904260834 1376.683521506312 381.3726344090295Q1375.1801390333862 374.94567433727383 1371.4968519747194 370.736203413083Q1367.8511494778759 366.5643170507152 1361.9879578334667 364.797842645028Q1356.1247661890584 363.0313682393408 1347.1044713515062 363.0313682393408L1347.1044713515062 363.0313682393408Q1336.9190550974376 363.0313682393408 1327.0718998997768 366.0381331851914Q1317.2623292639391 369.08248269286514 1311.1360456867683 373.02886168429404L1311.1360456867683 373.02886168429404L1316.8864836457078 385.3190134004584Q1320.306678771613 383.51495443294806 1326.3577932251374 382.1994947691384Q1332.4089076786613 380.8840351053288 1338.0090073903084 380.8840351053288L1338.0090073903084 380.8840351053288Q1344.5111365857101 380.8840351053288 1347.4427324079147 383.13910881471674Q1350.3743282301189 385.3941825241047 1350.3743282301189 390.9191131121052L1350.3743282301189 390.9191131121052L1350.3743282301189 392.5352492704999Q1347.2923941606223 392.5352492704999 1343.9473681583631 392.7983412032618Q1340.6023421561044 393.06143313602377 1336.3928712319134 393.88829349613263Q1332.1458157458997 394.67756929441845 1328.31219043994 395.9178598345818Q1324.4785651339807 397.12056581292205 1320.6825243898443 399.2628858368406Q1316.8864836457078 401.36762129893606 1314.180395194442 404.0737097502016Q1311.4743067431768 406.77979820146714 1309.7830014611359 410.688592631073Q1308.0541116172717 414.6349716225019 1308.0541116172717 419.33304185039344L1308.0541116172717 419.33304185039344Q1308.0541116172717 443.38716141719834 1332.4089076786613 443.38716141719834L1332.4089076786613 443.38716141719834Q1336.017025613682 443.38716141719834 1339.4372207395872 442.37237824797376Q1342.8574158654924 441.32001051692606 1345.2628278221728 439.89179716764704Q1347.6682397788531 438.42599925654486 1349.509883308187 436.9977859072658Q1351.3515268375204 435.56957255798676 1352.2535563212755 434.47962026511595L1352.2535563212755 434.47962026511595ZM1346.0145190586354 427.5264763278364L1346.0145190586354 427.5264763278364Q1338.3472684467165 427.5264763278364 1338.3472684467165 416.2511077808966L1338.3472684467165 416.2511077808966Q1338.3472684467165 409.9369013946103 1341.6171253253292 406.9301364487597Q1344.8493976421182 403.88578694108594 1350.3743282301189 403.88578694108594L1350.3743282301189 403.88578694108594L1350.3743282301189 425.53449455121034Q1350.3743282301189 425.53449455121034 1349.8105598027719 426.02309385491105Q1349.2843759372481 426.54927772043493 1348.2320082062001 427.0378770241357Q1347.2172250369758 427.5264763278364 1346.0145190586354 427.5264763278364ZM1435.8792063777455 441.5079333260417L1435.8792063777455 441.5079333260417Q1443.3585341805492 441.5079333260417 1449.1841412631347 438.38841469472175Q1455.0097483457203 435.2688960634017 1458.693035404387 429.78155003722435Q1462.3763224630543 424.294204011047 1464.2931351160341 417.1155527028286Q1466.1723632071908 409.9369013946103 1466.1723632071908 401.44279042258233L1466.1723632071908 401.44279042258233Q1466.1723632071908 383.4022007474787 1459.181634708088 373.2167844934097Q1452.1909062089853 363.0313682393408 1437.3074197270248 363.0313682393408L1437.3074197270248 363.0313682393408Q1433.8120554774732 363.0313682393408 1430.6925368461534 363.8582285994497Q1427.5730182148332 364.6475043977355 1425.13002169633 366.0005486233682Q1422.687025177826 367.353592849001 1420.995719895785 368.8193907601032Q1419.2668300519213 370.2476041093822 1417.838616702642 371.86374026777696L1417.838616702642 371.86374026777696L1417.838616702642 323.34207095411267L1411.9754250582332 323.34207095411267L1382.997727892598 327.8522183728886L1382.997727892598 336.2335756594472L1388.409904795129 339.5034325380597L1388.409904795129 441.5079333260417L1417.838616702642 441.5079333260417L1417.838616702642 437.2608778400278Q1425.768959247323 441.5079333260417 1435.8792063777455 441.5079333260417ZM1422.61185605418 428.9546896771154L1422.61185605418 428.9546896771154Q1421.5219037613092 428.9546896771154 1420.356782344792 428.84193599164604Q1419.1916609282748 428.6915977443535 1417.838616702642 428.35333668794533L1417.838616702642 428.35333668794533L1417.838616702642 381.4478035326758Q1421.258811828547 379.0048070141721 1424.6038378308058 379.0048070141721L1424.6038378308058 379.0048070141721Q1429.0012315641125 379.0048070141721 1431.8576582626706 383.17669337653984Q1434.7140849612283 387.38616430073074 1434.7140849612283 395.12858403629605L1434.7140849612283 395.12858403629605L1434.7140849612283 410.46308526013416Q1434.7140849612283 428.9546896771154 1422.61185605418 428.9546896771154Z " fill="#fad744" transform="matrix(0.5967920098253101,0,0,0.5967920098253103,0,62.27261802382097)"/></g></svg>